<svg xmlns="http://www.w3.org/2000/svg" xmlns:xlink="http://www.w3.org/1999/xlink" width="500" zoomAndPan="magnify" viewBox="0 0 375 374.999991" height="500" preserveAspectRatio="xMidYMid meet" version="1.0"><defs><clipPath id="id1"><path d="M 141.980469 116.1875 L 254.480469 116.1875 L 254.480469 228.6875 L 141.980469 228.6875 Z M 141.980469 116.1875 " clip-rule="nonzero"/></clipPath></defs><rect x="-37.5" width="450" fill="rgb(100%, 100%, 100%)" y="-37.499999" height="449.999989" fill-opacity="1"/><rect x="-37.5" width="450" fill="rgb(100%, 100%, 100%)" y="-37.499999" height="449.999989" fill-opacity="1"/><rect x="-37.5" width="450" fill="rgb(100%, 100%, 100%)" y="-37.499999" height="449.999989" fill-opacity="1"/><rect x="-37.5" width="450" fill="rgb(100%, 100%, 100%)" y="-37.499999" height="449.999989" fill-opacity="1"/><g clip-path="url(#id1)"><path fill="rgb(52.938843%, 79.60968%, 15.689087%)" d="M 193.679688 164.695312 L 198.050781 157.449219 C 205.207031 161.765625 207.507812 171.0625 203.195312 178.21875 L 198.824219 185.46875 C 191.667969 181.152344 189.363281 171.851562 193.679688 164.695312 Z M 193.980469 201.296875 L 187.039062 197.261719 C 180.183594 193.28125 177.855469 184.496094 181.835938 177.640625 L 188.777344 181.671875 C 195.632812 185.652344 197.964844 194.441406 193.980469 201.296875 Z M 193.980469 220.71875 L 187.039062 216.6875 C 180.183594 212.707031 177.855469 203.917969 181.835938 197.0625 L 188.777344 201.097656 C 195.632812 205.078125 197.964844 213.863281 193.980469 220.71875 Z M 183.289062 141.851562 L 184.53125 174.765625 L 182.050781 174.765625 Z M 198.214844 121.746094 L 199.457031 154.660156 L 196.976562 154.660156 Z M 214.597656 177.640625 C 218.578125 184.496094 216.25 193.28125 209.394531 197.261719 L 202.453125 201.296875 C 198.46875 194.441406 200.796875 185.652344 207.65625 181.671875 Z M 213.140625 141.851562 L 214.382812 174.765625 L 211.902344 174.765625 Z M 209.394531 216.6875 L 202.453125 220.71875 C 198.46875 213.863281 200.796875 205.078125 207.65625 201.097656 L 214.597656 197.0625 C 218.578125 203.917969 216.25 212.707031 209.394531 216.6875 Z M 170.667969 199.871094 L 166.242188 202.441406 C 163.703125 198.070312 165.1875 192.46875 169.558594 189.929688 L 173.984375 187.359375 C 176.523438 191.730469 175.039062 197.332031 170.667969 199.871094 Z M 170.667969 212.257812 L 166.242188 214.828125 C 163.703125 210.457031 165.1875 204.855469 169.558594 202.316406 L 173.984375 199.742188 C 176.523438 204.113281 175.039062 209.71875 170.667969 212.257812 Z M 160.648438 179.105469 L 163.4375 174.484375 C 168 177.238281 169.464844 183.167969 166.714844 187.730469 L 163.929688 192.351562 C 159.367188 189.597656 157.898438 183.667969 160.648438 179.105469 Z M 160.839844 202.441406 L 156.414062 199.871094 C 152.042969 197.332031 150.558594 191.730469 153.097656 187.359375 L 157.523438 189.929688 C 161.894531 192.46875 163.378906 198.070312 160.839844 202.441406 Z M 154.023438 164.539062 L 154.816406 185.527344 L 153.234375 185.527344 Z M 163.542969 151.722656 L 164.332031 172.710938 L 162.75 172.710938 Z M 173.058594 164.539062 L 173.847656 185.527344 L 172.269531 185.527344 Z M 222.445312 199.742188 L 226.875 202.316406 C 231.242188 204.855469 232.730469 210.457031 230.191406 214.828125 L 225.765625 212.257812 C 221.394531 209.71875 219.90625 204.113281 222.445312 199.742188 Z M 222.445312 187.359375 L 226.875 189.929688 C 231.242188 192.46875 232.730469 198.070312 230.191406 202.441406 L 225.765625 199.871094 C 221.394531 197.332031 219.90625 191.730469 222.445312 187.359375 Z M 223.375 164.539062 L 224.164062 185.527344 L 222.585938 185.527344 Z M 230 179.105469 L 232.785156 174.484375 C 237.347656 177.238281 238.816406 183.167969 236.0625 187.730469 L 233.277344 192.351562 C 228.714844 189.597656 227.246094 183.667969 230 179.105469 Z M 232.890625 151.722656 L 233.679688 172.710938 L 232.101562 172.710938 Z M 238.910156 189.929688 L 243.335938 187.359375 C 245.875 191.730469 244.390625 197.332031 240.019531 199.871094 L 235.589844 202.441406 C 233.050781 198.070312 234.539062 192.46875 238.910156 189.929688 Z M 242.40625 164.539062 L 243.199219 185.527344 L 241.617188 185.527344 Z M 207.65625 220.523438 L 214.597656 216.488281 C 216.273438 219.371094 216.828125 222.597656 216.402344 225.664062 C 218.824219 224.835938 221.171875 223.847656 223.433594 222.710938 C 220.953125 219.835938 220.433594 215.597656 222.445312 212.128906 L 226.875 214.699219 C 228.476562 215.628906 229.6875 216.972656 230.457031 218.515625 C 232.199219 217.292969 233.867188 215.980469 235.453125 214.574219 C 233.113281 210.242188 234.621094 204.804688 238.910156 202.316406 L 243.335938 199.742188 C 244.167969 201.175781 244.5625 202.738281 244.574219 204.28125 C 250.808594 195.222656 254.460938 184.25 254.460938 172.421875 C 254.460938 141.359375 229.28125 116.175781 198.214844 116.175781 C 167.152344 116.175781 141.96875 141.359375 141.96875 172.421875 C 141.96875 184.25 145.625 195.222656 151.859375 204.28125 C 151.867188 202.738281 152.265625 201.175781 153.097656 199.742188 L 157.523438 202.316406 C 161.8125 204.804688 163.320312 210.242188 160.980469 214.574219 C 162.566406 215.980469 164.234375 217.292969 165.976562 218.515625 C 166.746094 216.972656 167.957031 215.628906 169.558594 214.699219 L 173.984375 212.128906 C 176 215.597656 175.480469 219.835938 172.996094 222.710938 C 175.261719 223.847656 177.609375 224.835938 180.03125 225.664062 C 179.605469 222.597656 180.160156 219.371094 181.835938 216.488281 L 188.777344 220.523438 C 191.992188 222.386719 194.210938 225.308594 195.25 228.59375 C 196.234375 228.644531 197.222656 228.667969 198.214844 228.667969 C 199.210938 228.667969 200.199219 228.644531 201.179688 228.59375 C 202.222656 225.308594 204.441406 222.386719 207.65625 220.523438 " fill-opacity="1" fill-rule="nonzero"/></g></svg>