<svg xmlns="http://www.w3.org/2000/svg" xmlns:xlink="http://www.w3.org/1999/xlink" width="500" zoomAndPan="magnify" viewBox="0 0 375 374.999991" height="500" preserveAspectRatio="xMidYMid meet" version="1.0"><defs><g/><clipPath id="id1"><path d="M 145.398438 120.480469 L 229.398438 120.480469 L 229.398438 204.480469 L 145.398438 204.480469 Z M 145.398438 120.480469 " clip-rule="nonzero"/></clipPath></defs><rect x="-37.5" width="450" fill="rgb(100%, 100%, 100%)" y="-37.499999" height="449.999989" fill-opacity="1"/><rect x="-37.5" width="450" fill="rgb(100%, 100%, 100%)" y="-37.499999" height="449.999989" fill-opacity="1"/><rect x="-37.5" width="450" fill="rgb(100%, 100%, 100%)" y="-37.499999" height="449.999989" fill-opacity="1"/><rect x="-37.5" width="450" fill="rgb(100%, 100%, 100%)" y="-37.499999" height="449.999989" fill-opacity="1"/><g fill="rgb(19.999695%, 26.669312%, 23.529053%)" fill-opacity="1"><g transform="translate(144.161714, 238.557935)"><g><path d="M 10.984375 -13.523438 L 10.984375 -15.75 L 1.890625 -15.75 L 1.890625 0 L 10.984375 0 L 10.984375 -2.226562 L 4.304688 -2.226562 L 4.304688 -6.761719 L 10.101562 -6.761719 L 10.101562 -8.988281 L 4.304688 -8.988281 L 4.304688 -13.523438 Z M 10.984375 -13.523438 "/></g></g></g><g fill="rgb(19.999695%, 26.669312%, 23.529053%)" fill-opacity="1"><g transform="translate(157.139764, 238.557935)"><g><path d="M 13.292969 0 L 7.875 -8.042969 L 13.082031 -15.75 L 10.246094 -15.75 L 6.574219 -10.039062 L 2.917969 -15.75 L 0.0859375 -15.75 L 5.269531 -8.042969 L -0.125 0 L 2.730469 0 L 6.574219 -6.046875 L 10.4375 0 Z M 13.292969 0 "/></g></g></g><g fill="rgb(19.999695%, 26.669312%, 23.529053%)" fill-opacity="1"><g transform="translate(171.35682, 238.557935)"><g><path d="M 7.832031 -15.75 L 1.765625 -15.75 L 1.765625 0 L 4.179688 0 L 4.179688 -6.742188 L 7.832031 -6.742188 C 9.09375 -6.742188 10.164062 -7.160156 11.046875 -8.023438 C 11.90625 -8.863281 12.347656 -9.933594 12.347656 -11.214844 C 12.347656 -12.472656 11.90625 -13.546875 11.023438 -14.425781 C 10.144531 -15.308594 9.09375 -15.75 7.832031 -15.75 Z M 7.519531 -8.882812 L 4.179688 -8.882812 L 4.179688 -13.523438 L 7.519531 -13.523438 C 8.210938 -13.523438 8.800781 -13.292969 9.28125 -12.871094 C 9.742188 -12.433594 9.996094 -11.863281 9.996094 -11.191406 C 9.996094 -10.480469 9.742188 -9.933594 9.28125 -9.511719 C 8.820312 -9.09375 8.230469 -8.882812 7.519531 -8.882812 Z M 7.519531 -8.882812 "/></g></g></g><g fill="rgb(19.999695%, 26.669312%, 23.529053%)" fill-opacity="1"><g transform="translate(185.048866, 238.557935)"><g><path d="M 10.984375 -13.523438 L 10.984375 -15.75 L 1.890625 -15.75 L 1.890625 0 L 10.984375 0 L 10.984375 -2.226562 L 4.304688 -2.226562 L 4.304688 -6.761719 L 10.101562 -6.761719 L 10.101562 -8.988281 L 4.304688 -8.988281 L 4.304688 -13.523438 Z M 10.984375 -13.523438 "/></g></g></g><g fill="rgb(19.999695%, 26.669312%, 23.529053%)" fill-opacity="1"><g transform="translate(198.026917, 238.557935)"><g><path d="M 8.902344 -6.910156 C 9.910156 -7.097656 10.730469 -7.582031 11.382812 -8.378906 C 12.011719 -9.175781 12.347656 -10.101562 12.347656 -11.171875 C 12.347656 -12.433594 11.90625 -13.523438 11.023438 -14.40625 C 10.144531 -15.289062 9.09375 -15.75 7.832031 -15.75 L 1.765625 -15.75 L 1.765625 0 L 4.179688 0 L 4.179688 -6.699219 L 6.40625 -6.699219 L 10.625 0 L 13.441406 0 Z M 4.179688 -8.839844 L 4.179688 -13.480469 L 7.582031 -13.480469 C 8.253906 -13.480469 8.839844 -13.25 9.304688 -12.832031 C 9.765625 -12.390625 9.996094 -11.824219 9.996094 -11.152344 C 9.996094 -10.480469 9.765625 -9.910156 9.304688 -9.492188 C 8.839844 -9.050781 8.253906 -8.839844 7.582031 -8.839844 Z M 4.179688 -8.839844 "/></g></g></g><g fill="rgb(19.999695%, 26.669312%, 23.529053%)" fill-opacity="1"><g transform="translate(212.831972, 238.557935)"><g><path d="M 11.003906 -15.75 L 0.210938 -15.75 L 0.210938 -13.480469 L 4.410156 -13.480469 L 4.410156 0 L 6.824219 0 L 6.824219 -13.480469 L 11.003906 -13.480469 Z M 11.003906 -15.75 "/></g></g></g><g fill="rgb(19.999695%, 26.669312%, 23.529053%)" fill-opacity="1"><g transform="translate(225.0914, 238.557935)"><g/></g></g><g fill="rgb(19.999695%, 26.669312%, 23.529053%)" fill-opacity="1"><g transform="translate(159.005297, 251.207943)"><g><path d="M 5.59375 0 L 3.296875 -3.09375 L 2.09375 -1.78125 L 2.09375 0 L 0.921875 0 L 0.921875 -7 L 2.09375 -7 L 2.09375 -3.375 L 5.4375 -7 L 6.828125 -7 L 4.125 -4.015625 L 7.015625 0 Z M 5.59375 0 "/></g></g></g><g fill="rgb(19.999695%, 26.669312%, 23.529053%)" fill-opacity="1"><g transform="translate(169.772488, 251.207943)"><g><path d="M 6.984375 0 L 5.8125 0 L 5.8125 -2.90625 L 2.09375 -2.90625 L 2.09375 0 L 0.921875 0 L 0.921875 -7 L 2.09375 -7 L 2.09375 -3.953125 L 5.8125 -3.953125 L 5.8125 -7 L 6.984375 -7 Z M 6.984375 0 "/></g></g></g><g fill="rgb(19.999695%, 26.669312%, 23.529053%)" fill-opacity="1"><g transform="translate(181.269388, 251.207943)"><g><path d="M 5.921875 -5.9375 L 2.09375 -5.9375 L 2.09375 -4.046875 L 5.515625 -4.046875 L 5.515625 -2.984375 L 2.09375 -2.984375 L 2.09375 -1.0625 L 6.046875 -1.0625 L 6.046875 0 L 0.921875 0 L 0.921875 -7 L 5.921875 -7 Z M 5.921875 -5.9375 "/></g></g></g><g fill="rgb(19.999695%, 26.669312%, 23.529053%)" fill-opacity="1"><g transform="translate(191.416825, 251.207943)"><g><path d="M 5.703125 -5.9375 L 3.484375 -5.9375 L 3.484375 0 L 2.296875 0 L 2.296875 -5.9375 L 0.09375 -5.9375 L 0.09375 -7 L 5.703125 -7 Z M 5.703125 -5.9375 "/></g></g></g><g fill="rgb(19.999695%, 26.669312%, 23.529053%)" fill-opacity="1"><g transform="translate(200.794554, 251.207943)"><g><path d="M 2.09375 0 L 0.921875 0 L 0.921875 -7 L 2.09375 -7 Z M 2.09375 0 "/></g></g></g><g clip-path="url(#id1)"><path fill="rgb(52.938843%, 79.60968%, 15.689087%)" d="M 227.003906 169.039062 C 226.988281 169.035156 226.972656 169.035156 226.960938 169.03125 C 224.351562 168.640625 221.675781 168.441406 219.003906 168.441406 C 207.496094 168.441406 196.574219 172.035156 187.359375 178.832031 C 178.144531 172.035156 167.21875 168.441406 155.710938 168.441406 C 153.050781 168.441406 150.390625 168.636719 147.792969 169.023438 C 147.4375 166.894531 147.253906 164.707031 147.253906 162.480469 C 147.253906 140.34375 165.265625 122.335938 187.398438 122.335938 C 209.535156 122.335938 227.542969 140.34375 227.542969 162.480469 C 227.542969 164.714844 227.359375 166.902344 227.003906 169.039062 Z M 225.832031 174.082031 C 223.195312 182.800781 217.664062 190.277344 210.363281 195.390625 C 213.492188 187.101562 218.765625 179.714844 225.832031 173.914062 Z M 207.695312 197.101562 C 202.601562 200.105469 196.785156 202.011719 190.578125 202.496094 C 196.578125 187.878906 209.15625 176.34375 224.902344 172.140625 C 219.070312 176.867188 214.226562 182.84375 210.839844 189.515625 C 209.585938 191.984375 208.539062 194.515625 207.695312 197.101562 Z M 188.378906 202.609375 C 188.050781 202.621094 187.726562 202.621094 187.398438 202.621094 C 182.152344 202.621094 177.136719 201.613281 172.539062 199.769531 C 174.164062 196.351562 176.167969 193.113281 178.546875 190.089844 C 179.230469 189.21875 179.941406 188.375 180.675781 187.550781 C 182.878906 185.085938 185.316406 182.835938 187.953125 180.839844 C 196.945312 174.015625 207.683594 170.40625 219.003906 170.40625 C 220.398438 170.40625 221.792969 170.472656 223.175781 170.582031 C 212.863281 173.605469 203.574219 179.761719 196.734375 188.167969 C 193.191406 192.527344 190.378906 197.414062 188.378906 202.609375 Z M 151.542969 170.582031 C 152.925781 170.472656 154.320312 170.40625 155.710938 170.40625 C 166.605469 170.40625 176.957031 173.746094 185.730469 180.078125 C 185.675781 180.121094 185.621094 180.171875 185.566406 180.214844 C 185.390625 180.355469 185.21875 180.496094 185.050781 180.636719 C 184.796875 180.84375 184.550781 181.054688 184.300781 181.261719 C 184.128906 181.414062 183.953125 181.566406 183.78125 181.71875 C 183.539062 181.929688 183.304688 182.140625 183.070312 182.351562 C 182.894531 182.511719 182.726562 182.667969 182.554688 182.828125 C 182.324219 183.042969 182.09375 183.261719 181.867188 183.480469 C 181.703125 183.644531 181.535156 183.808594 181.367188 183.972656 C 181.140625 184.195312 180.917969 184.425781 180.695312 184.652344 C 180.535156 184.820312 180.375 184.984375 180.21875 185.148438 C 179.992188 185.390625 179.765625 185.632812 179.542969 185.878906 C 179.398438 186.039062 179.253906 186.195312 179.109375 186.359375 C 178.867188 186.628906 178.625 186.910156 178.390625 187.1875 C 178.269531 187.324219 178.152344 187.460938 178.035156 187.597656 C 177.945312 187.707031 177.863281 187.8125 177.773438 187.917969 C 170.949219 179.632812 161.769531 173.578125 151.542969 170.582031 Z M 172.046875 196.40625 C 171.945312 196.589844 171.84375 196.777344 171.746094 196.964844 C 171.640625 197.167969 171.535156 197.371094 171.429688 197.574219 C 171.335938 197.761719 171.238281 197.949219 171.148438 198.140625 C 171.042969 198.34375 170.945312 198.550781 170.84375 198.757812 C 170.808594 198.839844 170.769531 198.914062 170.734375 198.996094 C 169.441406 198.40625 168.183594 197.746094 166.972656 197.027344 C 163.785156 187.339844 157.84375 178.644531 149.8125 172.136719 C 160.269531 174.929688 169.664062 181.019531 176.523438 189.492188 C 176.464844 189.570312 176.40625 189.648438 176.347656 189.730469 C 176.21875 189.898438 176.09375 190.070312 175.964844 190.238281 C 175.828125 190.429688 175.691406 190.613281 175.558594 190.800781 C 175.433594 190.972656 175.3125 191.148438 175.191406 191.320312 C 175.058594 191.511719 174.925781 191.703125 174.796875 191.890625 C 174.679688 192.066406 174.558594 192.242188 174.441406 192.421875 C 174.316406 192.613281 174.191406 192.804688 174.066406 192.996094 C 173.953125 193.175781 173.835938 193.355469 173.722656 193.535156 C 173.601562 193.730469 173.480469 193.921875 173.363281 194.117188 C 173.253906 194.300781 173.140625 194.480469 173.035156 194.664062 C 172.917969 194.859375 172.804688 195.058594 172.691406 195.253906 C 172.585938 195.441406 172.480469 195.625 172.375 195.804688 C 172.261719 196.003906 172.15625 196.207031 172.046875 196.40625 Z M 148.925781 173.949219 C 155.828125 179.640625 161.097656 187.027344 164.265625 195.265625 C 157.007812 190.136719 151.523438 182.660156 148.925781 173.949219 Z M 187.398438 120.480469 C 164.238281 120.480469 145.398438 139.320312 145.398438 162.480469 C 145.398438 166.359375 145.929688 170.125 146.917969 173.695312 C 147.445312 175.597656 148.105469 177.449219 148.882812 179.230469 C 152.3125 187.082031 158.070312 193.6875 165.28125 198.171875 C 166.085938 198.675781 166.90625 199.148438 167.746094 199.59375 C 168.472656 199.980469 169.210938 200.34375 169.964844 200.6875 C 170.558594 200.960938 171.164062 201.222656 171.773438 201.464844 C 176.605469 203.410156 181.878906 204.480469 187.398438 204.480469 C 187.496094 204.480469 187.59375 204.480469 187.691406 204.476562 C 188.414062 204.472656 189.128906 204.449219 189.839844 204.40625 C 195.980469 204.054688 201.773438 202.378906 206.929688 199.65625 C 207.765625 199.21875 208.578125 198.753906 209.375 198.261719 C 216.59375 193.808594 222.371094 187.234375 225.832031 179.414062 C 226.605469 177.664062 227.261719 175.855469 227.796875 173.988281 C 228.839844 170.332031 229.398438 166.46875 229.398438 162.480469 C 229.398438 139.320312 210.558594 120.480469 187.398438 120.480469 Z M 187.5 146.085938 C 181.410156 141.265625 183.945312 136.585938 186.398438 132.054688 C 186.898438 131.132812 187.382812 130.238281 187.761719 129.378906 C 188.039062 129.90625 188.339844 130.445312 188.652344 131.003906 C 191.234375 135.617188 194.152344 140.835938 187.5 146.085938 Z M 188.394531 127.523438 L 188.390625 127.527344 Z M 190.367188 130.042969 C 189.734375 128.914062 189.136719 127.847656 188.78125 126.929688 C 188.585938 126.429688 188.09375 126.121094 187.558594 126.160156 C 187.019531 126.203125 186.582031 126.585938 186.472656 127.113281 C 186.230469 128.238281 185.472656 129.636719 184.671875 131.117188 C 182.179688 135.714844 178.773438 142.007812 186.695312 147.945312 C 186.863281 148.074219 187.070312 148.144531 187.285156 148.144531 L 187.71875 148.144531 C 187.929688 148.144531 188.136719 148.074219 188.308594 147.945312 C 196.816406 141.570312 192.933594 134.632812 190.367188 130.042969 Z M 168.609375 141.234375 C 177.101562 143.53125 181.429688 147.398438 183.511719 154.796875 C 180.800781 152.554688 177.796875 151.308594 175.265625 150.257812 C 170.453125 148.257812 167.449219 147.011719 168.609375 141.234375 Z M 174.511719 152.070312 C 177.808594 153.441406 181.542969 154.992188 184.453125 158.503906 C 184.644531 158.734375 184.925781 158.859375 185.210938 158.859375 C 185.351562 158.859375 185.492188 158.832031 185.625 158.769531 C 186.03125 158.582031 186.257812 158.144531 186.179688 157.703125 C 184.28125 147.050781 179.214844 141.828125 168.117188 139.078125 C 167.59375 138.945312 167.0625 139.261719 166.925781 139.785156 C 164.808594 148.042969 169.523438 150 174.511719 152.070312 Z M 172.183594 163.601562 C 166.152344 162.179688 162.085938 161.222656 162.421875 153.804688 C 173.363281 154.886719 179.351562 158.792969 183.296875 167.675781 C 179.574219 165.34375 175.695312 164.429688 172.183594 163.601562 Z M 161.589844 151.757812 C 161.054688 151.714844 160.582031 152.113281 160.53125 152.648438 C 159.636719 162.664062 165.242188 163.984375 171.734375 165.515625 C 175.917969 166.503906 180.664062 167.621094 184.824219 171.25 C 185.007812 171.410156 185.242188 171.492188 185.472656 171.492188 C 185.664062 171.492188 185.855469 171.433594 186.023438 171.320312 C 186.394531 171.070312 186.546875 170.601562 186.398438 170.183594 C 182.121094 158.027344 175.167969 152.863281 161.589844 151.757812 Z M 205.847656 141.234375 C 207.007812 147.011719 204.003906 148.257812 199.191406 150.257812 C 196.660156 151.308594 193.65625 152.554688 190.949219 154.796875 C 193.027344 147.398438 197.355469 143.53125 205.847656 141.234375 Z M 188.832031 158.769531 C 188.964844 158.832031 189.105469 158.859375 189.246094 158.859375 C 189.53125 158.859375 189.8125 158.734375 190.003906 158.503906 C 192.914062 154.992188 196.648438 153.441406 199.945312 152.070312 C 204.933594 150 209.648438 148.042969 207.53125 139.785156 C 207.394531 139.261719 206.867188 138.945312 206.339844 139.078125 C 195.242188 141.828125 190.175781 147.050781 188.277344 157.703125 C 188.199219 158.144531 188.425781 158.582031 188.832031 158.769531 Z M 202.535156 163.601562 C 199.023438 164.429688 195.140625 165.34375 191.417969 167.675781 C 195.363281 158.792969 201.355469 154.886719 212.292969 153.804688 C 212.628906 161.222656 208.5625 162.179688 202.535156 163.601562 Z M 213.125 151.757812 C 199.550781 152.863281 192.59375 158.027344 188.320312 170.183594 C 188.171875 170.601562 188.324219 171.070312 188.695312 171.320312 C 188.863281 171.433594 189.054688 171.492188 189.246094 171.492188 C 189.476562 171.492188 189.707031 171.410156 189.890625 171.25 C 194.050781 167.621094 198.796875 166.503906 202.984375 165.515625 C 209.476562 163.984375 215.082031 162.664062 214.183594 152.648438 C 214.136719 152.113281 213.660156 151.714844 213.125 151.757812 " fill-opacity="1" fill-rule="nonzero"/></g></svg>